<?xml version="1.0" standalone="no"?>
<!DOCTYPE svg PUBLIC "-//W3C//DTD SVG 20010904//EN"
 "http://www.w3.org/TR/2001/REC-SVG-20010904/DTD/svg10.dtd">
<svg version="1.0" xmlns="http://www.w3.org/2000/svg"
 width="1024.000000pt" height="1024.000000pt" viewBox="0 0 1024.000000 1024.000000"
 preserveAspectRatio="xMidYMid meet">

<g transform="translate(0.000000,1024.000000) scale(0.100000,-0.100000)"
fill="#000000" stroke="none">
<path d="M2370 6218 l0 -1432 439 -441 440 -440 -131 -134 -130 -134 398 -393
399 -393 -477 0 -478 -1 0 448 0 447 -230 230 -230 230 0 -903 0 -902 2575 0
2575 0 0 1203 0 1202 -142 143 c-78 78 -144 142 -147 142 -6 0 -1180 -1176
-1778 -1780 l-302 -306 -638 638 c-351 351 -641 638 -645 638 -5 0 -56 -46
-114 -102 -59 -57 -110 -103 -114 -103 -12 0 -700 677 -700 688 0 6 321 328
713 716 391 388 847 839 1012 1003 l300 298 672 -673 672 -672 -143 -148
c-123 -127 -147 -147 -163 -139 -10 6 -244 238 -521 516 -276 278 -506 506
-510 506 -4 0 -277 -270 -607 -601 l-600 -600 680 -675 c374 -370 685 -673
692 -671 6 1 417 406 913 901 l902 898 -48 51 c-113 117 -802 816 -1244 1260
l-475 477 943 0 942 0 0 -657 0 -657 225 -226 225 -225 0 1103 0 1102 -2575 0
-2575 0 0 -1432z m2363 980 c-15 -22 -1888 -1888 -1896 -1888 -4 0 -7 428 -7
950 l0 950 955 0 c763 0 954 -3 948 -12z m679 -2660 l-282 -283 -356 357 -357
356 284 280 284 281 355 -355 355 -354 -283 -282z m1658 -1218 l0 -470 -477 0
-478 0 471 470 c260 259 475 470 478 470 3 0 6 -211 6 -470z"/>
</g>
</svg>
